<?xml version="1.0" standalone="no"?>
<!DOCTYPE svg PUBLIC "-//W3C//DTD SVG 20010904//EN"
 "http://www.w3.org/TR/2001/REC-SVG-20010904/DTD/svg10.dtd">
<svg version="1.0" xmlns="http://www.w3.org/2000/svg"
 width="300.000000pt" height="298.000000pt" viewBox="0 0 300.000000 298.000000"
 preserveAspectRatio="xMidYMid meet">
<metadata>
Created by potrace 1.10, written by Peter Selinger 2001-2011
</metadata>
<g transform="translate(0.000000,298.000000) scale(0.050000,-0.050000)"
fill="#000000" stroke="none">
<path d="M1460 3974 c-70 -35 -79 -596 -11 -646 50 -36 251 -37 300 -1 57 41
64 580 8 636 -44 44 -219 51 -297 11z"/>
<path d="M2544 3969 c-68 -48 -68 -590 0 -638 100 -70 413 -8 364 72 -7 11
-12 136 -11 278 0 243 -2 261 -43 289 -58 40 -251 40 -310 -1z"/>
<path d="M1055 2989 c-30 -28 -55 -53 -55 -57 0 -349 282 -866 615 -1127 436
-343 1239 -371 1705 -60 204 137 476 441 530 594 15 43 41 99 58 125 17 26 41
110 52 187 12 76 27 171 33 211 22 142 -86 210 -253 160 -103 -31 -126 -65
-142 -216 -33 -316 -268 -618 -628 -803 l-180 -93 -285 4 -284 4 -177 91
c-228 118 -378 253 -494 446 -90 150 -97 172 -142 462 -19 123 -248 170 -353
72z"/>
</g>
</svg>
